<mxfile host="app.diagrams.net" modified="2024-04-09T00:02:06.001Z" agent="Mozilla/5.0 (Windows NT 10.0; Win64; x64) AppleWebKit/537.36 (KHTML, like Gecko) Chrome/123.0.0.0 Safari/537.36" etag="sek4hmfuZlKNsPnEGXOK" version="24.2.3" type="device">
  <diagram name="Page-1" id="ilSUZ8ma3tSh7dR4XqHl">
    <mxGraphModel dx="1434" dy="772" grid="1" gridSize="10" guides="1" tooltips="1" connect="1" arrows="1" fold="1" page="1" pageScale="1" pageWidth="850" pageHeight="1100" math="0" shadow="0">
      <root>
        <mxCell id="0" />
        <mxCell id="1" parent="0" />
        <mxCell id="O2ncf1XmMoVulrEGX2YZ-1" value="Content-based" style="rounded=0;whiteSpace=wrap;html=1;" vertex="1" parent="1">
          <mxGeometry x="110" y="230" width="120" height="60" as="geometry" />
        </mxCell>
        <mxCell id="O2ncf1XmMoVulrEGX2YZ-2" value="Collaborative Filtering- based" style="rounded=0;whiteSpace=wrap;html=1;" vertex="1" parent="1">
          <mxGeometry x="110" y="350" width="120" height="60" as="geometry" />
        </mxCell>
        <mxCell id="O2ncf1XmMoVulrEGX2YZ-3" value="Movie Feature&lt;div&gt;(Genre)&lt;/div&gt;" style="rounded=0;whiteSpace=wrap;html=1;" vertex="1" parent="1">
          <mxGeometry x="330" y="230" width="120" height="60" as="geometry" />
        </mxCell>
        <mxCell id="O2ncf1XmMoVulrEGX2YZ-4" value="Rating from User" style="rounded=0;whiteSpace=wrap;html=1;" vertex="1" parent="1">
          <mxGeometry x="330" y="350" width="120" height="60" as="geometry" />
        </mxCell>
        <mxCell id="O2ncf1XmMoVulrEGX2YZ-5" value="Neural Network" style="rounded=0;whiteSpace=wrap;html=1;" vertex="1" parent="1">
          <mxGeometry x="550" y="290" width="120" height="60" as="geometry" />
        </mxCell>
        <mxCell id="O2ncf1XmMoVulrEGX2YZ-6" value="" style="endArrow=none;dashed=1;html=1;rounded=0;" edge="1" parent="1">
          <mxGeometry width="50" height="50" relative="1" as="geometry">
            <mxPoint x="290" y="480" as="sourcePoint" />
            <mxPoint x="290" y="120" as="targetPoint" />
          </mxGeometry>
        </mxCell>
        <mxCell id="O2ncf1XmMoVulrEGX2YZ-7" value="" style="endArrow=none;dashed=1;html=1;rounded=0;" edge="1" parent="1">
          <mxGeometry width="50" height="50" relative="1" as="geometry">
            <mxPoint x="480" y="480" as="sourcePoint" />
            <mxPoint x="480" y="120" as="targetPoint" />
          </mxGeometry>
        </mxCell>
        <mxCell id="O2ncf1XmMoVulrEGX2YZ-8" value="" style="endArrow=none;dashed=1;html=1;rounded=0;" edge="1" parent="1">
          <mxGeometry width="50" height="50" relative="1" as="geometry">
            <mxPoint x="290" y="120" as="sourcePoint" />
            <mxPoint x="480" y="120" as="targetPoint" />
          </mxGeometry>
        </mxCell>
        <mxCell id="O2ncf1XmMoVulrEGX2YZ-9" value="" style="endArrow=none;dashed=1;html=1;rounded=0;" edge="1" parent="1">
          <mxGeometry width="50" height="50" relative="1" as="geometry">
            <mxPoint x="290" y="480" as="sourcePoint" />
            <mxPoint x="480" y="480" as="targetPoint" />
          </mxGeometry>
        </mxCell>
        <mxCell id="O2ncf1XmMoVulrEGX2YZ-10" value="Dataset Feature" style="text;html=1;align=center;verticalAlign=middle;whiteSpace=wrap;rounded=0;" vertex="1" parent="1">
          <mxGeometry x="360" y="130" width="60" height="30" as="geometry" />
        </mxCell>
        <mxCell id="O2ncf1XmMoVulrEGX2YZ-11" value="" style="endArrow=classic;html=1;rounded=0;entryX=1;entryY=0.5;entryDx=0;entryDy=0;" edge="1" parent="1" source="O2ncf1XmMoVulrEGX2YZ-3" target="O2ncf1XmMoVulrEGX2YZ-1">
          <mxGeometry width="50" height="50" relative="1" as="geometry">
            <mxPoint x="400" y="420" as="sourcePoint" />
            <mxPoint x="450" y="370" as="targetPoint" />
          </mxGeometry>
        </mxCell>
        <mxCell id="O2ncf1XmMoVulrEGX2YZ-12" value="" style="endArrow=classic;html=1;rounded=0;exitX=0;exitY=0.5;exitDx=0;exitDy=0;" edge="1" parent="1" source="O2ncf1XmMoVulrEGX2YZ-4" target="O2ncf1XmMoVulrEGX2YZ-2">
          <mxGeometry width="50" height="50" relative="1" as="geometry">
            <mxPoint x="340" y="270" as="sourcePoint" />
            <mxPoint x="240" y="270" as="targetPoint" />
          </mxGeometry>
        </mxCell>
        <mxCell id="O2ncf1XmMoVulrEGX2YZ-13" value="" style="edgeStyle=entityRelationEdgeStyle;fontSize=12;html=1;endArrow=blockThin;endFill=1;startArrow=none;rounded=0;startFill=0;exitX=1;exitY=0.5;exitDx=0;exitDy=0;" edge="1" parent="1" source="O2ncf1XmMoVulrEGX2YZ-4" target="O2ncf1XmMoVulrEGX2YZ-5">
          <mxGeometry width="60" height="60" relative="1" as="geometry">
            <mxPoint x="390" y="430" as="sourcePoint" />
            <mxPoint x="450" y="370" as="targetPoint" />
            <Array as="points">
              <mxPoint x="530" y="380" />
              <mxPoint x="490" y="300" />
              <mxPoint x="500" y="380" />
            </Array>
          </mxGeometry>
        </mxCell>
        <mxCell id="O2ncf1XmMoVulrEGX2YZ-14" value="" style="edgeStyle=entityRelationEdgeStyle;fontSize=12;html=1;endArrow=blockThin;endFill=1;startArrow=none;rounded=0;startFill=0;exitX=1;exitY=0.5;exitDx=0;exitDy=0;" edge="1" parent="1" source="O2ncf1XmMoVulrEGX2YZ-3" target="O2ncf1XmMoVulrEGX2YZ-5">
          <mxGeometry width="60" height="60" relative="1" as="geometry">
            <mxPoint x="460" y="390" as="sourcePoint" />
            <mxPoint x="560" y="330" as="targetPoint" />
            <Array as="points">
              <mxPoint x="440" y="260" />
              <mxPoint x="440" y="250" />
              <mxPoint x="540" y="390" />
              <mxPoint x="500" y="310" />
              <mxPoint x="510" y="390" />
            </Array>
          </mxGeometry>
        </mxCell>
      </root>
    </mxGraphModel>
  </diagram>
</mxfile>
